<svg xmlns="http://www.w3.org/2000/svg" width="24" height="24" viewBox="0 0 24 24" fill="none" stroke="#7eb8da" stroke-width="1.5" stroke-linecap="round" stroke-linejoin="round">
  <line x1="12" y1="2" x2="12" y2="22"/>
  <line x1="4.93" y1="4.93" x2="19.07" y2="19.07"/>
  <line x1="19.07" y1="4.93" x2="4.93" y2="19.07"/>
  <line x1="12" y1="2" x2="9" y2="5"/>
  <line x1="12" y1="2" x2="15" y2="5"/>
  <line x1="12" y1="22" x2="9" y2="19"/>
  <line x1="12" y1="22" x2="15" y2="19"/>
  <line x1="4.93" y1="4.93" x2="4.93" y2="8.5"/>
  <line x1="4.93" y1="4.93" x2="8.5" y2="4.93"/>
  <line x1="19.07" y1="4.93" x2="15.5" y2="4.93"/>
  <line x1="19.07" y1="4.93" x2="19.07" y2="8.5"/>
  <line x1="4.93" y1="19.07" x2="4.93" y2="15.5"/>
  <line x1="4.93" y1="19.07" x2="8.5" y2="19.07"/>
  <line x1="19.07" y1="19.07" x2="15.5" y2="19.07"/>
  <line x1="19.07" y1="19.07" x2="19.07" y2="15.5"/>
</svg>
