<svg viewBox="-18 -18 58 58" width="500" height="500" fill="none" xmlns="http://www.w3.org/2000/svg">
  <defs>
    <style>
      .wk-body { transform-origin: 11px 14px; animation: wk-rise 1.5s ease-out 1 forwards; }
      @keyframes wk-rise { 0%{transform:translateY(3px) rotate(-5deg)} 100%{transform:translateY(0) rotate(0)} }
    </style>
  </defs>
  <g class="wk-body">
    <polygon points="7,13 0,18 7,20" fill="#3a7a44"/>
    <polygon points="15,13 22,18 15,20" fill="#3a7a44"/>
    <path d="M13 20 Q17 22 15 25 Q12 24 13 21" fill="#3a7a44"/>
    <ellipse cx="11" cy="16" rx="5" ry="4.5" fill="#4e9e5a"/>
    <ellipse cx="11" cy="16.5" rx="3" ry="2.8" fill="#7fbf8a"/>
    <rect x="9" y="10.5" width="4" height="3" rx="1.5" fill="#4e9e5a"/>
    <circle cx="11" cy="8.5" r="5" fill="#4e9e5a"/>
    <polygon points="8.5,4.5 9.5,1.5 11,4.5" fill="#ff7043"/>
    <polygon points="11,4.5 12.5,1.5 13.5,4.5" fill="#ff7043"/>
    <ellipse cx="11" cy="11" rx="2.2" ry="1.3" fill="#3a7a44"/>
    <circle cx="10.2" cy="11" r=".4" fill="#2d5e35"/>
    <circle cx="11.8" cy="11" r=".4" fill="#2d5e35"/>
    <!-- one eye open, one rubbing -->
    <circle cx="9" cy="8" r="2" fill="#f0f0f0"/>
    <circle cx="9" cy="8" r="1.1" fill="#111827"/>
    <circle cx="9.4" cy="7.6" r=".35" fill="white"/>
    <!-- right eye closed with hand rubbing -->
    <path d="M11.2 8 Q13 9 14.8 8" stroke="#3a7a44" stroke-width="1" stroke-linecap="round" fill="none"/>
    <!-- rubbing arm -->
    <ellipse cx="14.5" cy="7" rx="1.5" ry="1" fill="#4e9e5a" transform="rotate(-30 14.5 7)"/>
    <path d="M9.5 13 Q11 14 12.5 13" stroke="#2d5e35" stroke-width=".7" stroke-linecap="round" fill="none"/>
  </g>
</svg>
